<svg xmlns="http://www.w3.org/2000/svg" version="1.1" xmlns:xlink="http://www.w3.org/1999/xlink" xmlns:svgjs="http://svgjs.com/svgjs" width="1440" height="560" preserveAspectRatio="none" viewBox="0 0 1440 560"><g mask="url(&quot;#SvgjsMask1010&quot;)" fill="none"><g mask="url(&quot;#SvgjsMask1011&quot;)"><path d="M212.5 337.5L237.5 362.5L262.5 362.5M162.5 337.5L187.5 312.5L212.5 312.5L237.5 312.5L262.5 312.5L287.5 312.5L312.5 312.5L337.5 312.5M512.5 312.5L537.5 287.5L562.5 287.5L587.5 287.5L612.5 287.5L637.5 287.5M112.5 312.5L137.5 287.5L162.5 287.5M362.5 337.5L387.5 362.5M462.5 337.5L487.5 362.5M-12.5 287.5L12.5 287.5L37.5 287.5L62.5 287.5L87.5 287.5L112.5 312.5L137.5 312.5L162.5 337.5L187.5 337.5L212.5 337.5L237.5 337.5L262.5 337.5L287.5 337.5L312.5 337.5L337.5 337.5L362.5 337.5L387.5 337.5L412.5 337.5L437.5 337.5L462.5 337.5L487.5 337.5L512.5 312.5L537.5 312.5L562.5 312.5L587.5 312.5L612.5 312.5L637.5 312.5" stroke="rgba(0, 168, 126, 1)" stroke-width="4.17"></path><path d="M631.25 312.5 a6.25 6.25 0 1 0 12.5 0 a6.25 6.25 0 1 0 -12.5 0zM256.25 362.5 a6.25 6.25 0 1 0 12.5 0 a6.25 6.25 0 1 0 -12.5 0zM331.25 312.5 a6.25 6.25 0 1 0 12.5 0 a6.25 6.25 0 1 0 -12.5 0zM631.25 287.5 a6.25 6.25 0 1 0 12.5 0 a6.25 6.25 0 1 0 -12.5 0zM156.25 287.5 a6.25 6.25 0 1 0 12.5 0 a6.25 6.25 0 1 0 -12.5 0zM381.25 362.5 a6.25 6.25 0 1 0 12.5 0 a6.25 6.25 0 1 0 -12.5 0zM481.25 362.5 a6.25 6.25 0 1 0 12.5 0 a6.25 6.25 0 1 0 -12.5 0z" fill="rgba(0, 168, 126, 1)"></path><path d="M462.5 237.5L487.5 262.5M587.5 237.5L612.5 212.5L637.5 212.5L662.5 212.5M387.5 237.5L412.5 212.5L437.5 212.5L462.5 212.5L487.5 212.5M262.5 237.5L287.5 262.5L312.5 262.5L337.5 262.5M212.5 237.5L237.5 262.5L262.5 262.5L287.5 287.5L312.5 287.5L337.5 287.5M162.5 237.5L187.5 262.5M-12.5 262.5L12.5 262.5L37.5 262.5L62.5 262.5L87.5 262.5L112.5 262.5L137.5 237.5L162.5 237.5L187.5 237.5L212.5 237.5L237.5 237.5L262.5 237.5L287.5 237.5L312.5 237.5L337.5 237.5L362.5 237.5L387.5 237.5L412.5 237.5L437.5 237.5L462.5 237.5L487.5 237.5L512.5 237.5L537.5 237.5L562.5 237.5L587.5 237.5L612.5 237.5" stroke="rgba(0, 168, 126, 1)" stroke-width="4.17"></path><path d="M606.25 237.5 a6.25 6.25 0 1 0 12.5 0 a6.25 6.25 0 1 0 -12.5 0zM481.25 262.5 a6.25 6.25 0 1 0 12.5 0 a6.25 6.25 0 1 0 -12.5 0zM656.25 212.5 a6.25 6.25 0 1 0 12.5 0 a6.25 6.25 0 1 0 -12.5 0zM481.25 212.5 a6.25 6.25 0 1 0 12.5 0 a6.25 6.25 0 1 0 -12.5 0zM331.25 262.5 a6.25 6.25 0 1 0 12.5 0 a6.25 6.25 0 1 0 -12.5 0zM331.25 287.5 a6.25 6.25 0 1 0 12.5 0 a6.25 6.25 0 1 0 -12.5 0zM181.25 262.5 a6.25 6.25 0 1 0 12.5 0 a6.25 6.25 0 1 0 -12.5 0z" fill="rgba(0, 168, 126, 1)"></path><path d="M237.5 412.5L262.5 387.5M162.5 362.5L187.5 362.5L212.5 362.5L237.5 387.5M187.5 387.5L212.5 387.5M-12.5 312.5L12.5 312.5L37.5 312.5L62.5 312.5L87.5 312.5L112.5 337.5L137.5 337.5L162.5 362.5L187.5 387.5L212.5 412.5L237.5 412.5L262.5 412.5" stroke="rgba(0, 168, 126, 1)" stroke-width="4.17"></path><path d="M256.25 412.5 a6.25 6.25 0 1 0 12.5 0 a6.25 6.25 0 1 0 -12.5 0zM256.25 387.5 a6.25 6.25 0 1 0 12.5 0 a6.25 6.25 0 1 0 -12.5 0zM231.25 387.5 a6.25 6.25 0 1 0 12.5 0 a6.25 6.25 0 1 0 -12.5 0zM206.25 387.5 a6.25 6.25 0 1 0 12.5 0 a6.25 6.25 0 1 0 -12.5 0z" fill="rgba(0, 168, 126, 1)"></path><path d="M-12.5 237.5L12.5 237.5L37.5 237.5L62.5 237.5" stroke="rgba(0, 168, 126, 1)" stroke-width="4.17"></path><path d="M56.25 237.5 a6.25 6.25 0 1 0 12.5 0 a6.25 6.25 0 1 0 -12.5 0z" fill="rgba(0, 168, 126, 1)"></path><path d="M262.5 437.5L287.5 437.5L312.5 437.5L337.5 437.5L362.5 412.5M387.5 437.5L412.5 412.5L437.5 412.5L462.5 437.5L487.5 437.5L512.5 437.5M337.5 462.5L362.5 462.5L387.5 462.5L412.5 462.5L437.5 462.5M-12.5 337.5L12.5 337.5L37.5 337.5L62.5 337.5L87.5 337.5L112.5 362.5L137.5 362.5L162.5 387.5L187.5 412.5L212.5 437.5L237.5 437.5L262.5 437.5L287.5 462.5L312.5 462.5L337.5 462.5L362.5 437.5L387.5 437.5L412.5 437.5L437.5 437.5" stroke="rgba(0, 168, 126, 1)" stroke-width="4.17"></path><path d="M431.25 437.5 a6.25 6.25 0 1 0 12.5 0 a6.25 6.25 0 1 0 -12.5 0zM356.25 412.5 a6.25 6.25 0 1 0 12.5 0 a6.25 6.25 0 1 0 -12.5 0zM506.25 437.5 a6.25 6.25 0 1 0 12.5 0 a6.25 6.25 0 1 0 -12.5 0zM431.25 462.5 a6.25 6.25 0 1 0 12.5 0 a6.25 6.25 0 1 0 -12.5 0z" fill="rgba(0, 168, 126, 1)"></path><path d="M87.5 212.5L112.5 237.5M-12.5 212.5L12.5 212.5L37.5 212.5L62.5 212.5L87.5 212.5L112.5 212.5L137.5 212.5" stroke="rgba(0, 168, 126, 1)" stroke-width="4.17"></path><path d="M131.25 212.5 a6.25 6.25 0 1 0 12.5 0 a6.25 6.25 0 1 0 -12.5 0zM106.25 237.5 a6.25 6.25 0 1 0 12.5 0 a6.25 6.25 0 1 0 -12.5 0z" fill="rgba(0, 168, 126, 1)"></path><path d="M-12.5 362.5L12.5 362.5L37.5 362.5L62.5 362.5" stroke="rgba(2, 195, 154, 1)" stroke-width="4.17"></path><path d="M56.25 362.5 a6.25 6.25 0 1 0 12.5 0 a6.25 6.25 0 1 0 -12.5 0z" fill="rgba(2, 195, 154, 1)"></path><path d="M287.5 212.5L312.5 187.5L337.5 187.5M212.5 212.5L237.5 187.5L262.5 187.5M162.5 212.5L187.5 187.5L212.5 187.5M-12.5 187.5L12.5 187.5L37.5 187.5L62.5 187.5L87.5 187.5L112.5 187.5L137.5 187.5L162.5 212.5L187.5 212.5L212.5 212.5L237.5 212.5L262.5 212.5L287.5 212.5L312.5 212.5" stroke="rgba(2, 195, 154, 1)" stroke-width="4.17"></path><path d="M306.25 212.5 a6.25 6.25 0 1 0 12.5 0 a6.25 6.25 0 1 0 -12.5 0zM331.25 187.5 a6.25 6.25 0 1 0 12.5 0 a6.25 6.25 0 1 0 -12.5 0zM256.25 187.5 a6.25 6.25 0 1 0 12.5 0 a6.25 6.25 0 1 0 -12.5 0zM206.25 187.5 a6.25 6.25 0 1 0 12.5 0 a6.25 6.25 0 1 0 -12.5 0z" fill="rgba(2, 195, 154, 1)"></path><path d="M37.5 387.5L62.5 412.5L87.5 412.5L112.5 412.5M212.5 462.5L237.5 487.5L262.5 487.5L287.5 512.5L312.5 512.5L337.5 512.5L362.5 512.5L387.5 512.5M537.5 487.5L562.5 512.5M12.5 387.5L37.5 412.5L62.5 437.5L87.5 437.5M512.5 487.5L537.5 462.5L562.5 462.5M462.5 487.5L487.5 512.5L512.5 512.5L537.5 512.5M-12.5 387.5L12.5 387.5L37.5 387.5L62.5 387.5L87.5 387.5L112.5 387.5L137.5 387.5L162.5 412.5L187.5 437.5L212.5 462.5L237.5 462.5L262.5 462.5L287.5 487.5L312.5 487.5L337.5 487.5L362.5 487.5L387.5 487.5L412.5 487.5L437.5 487.5L462.5 487.5L487.5 487.5L512.5 487.5L537.5 487.5L562.5 487.5L587.5 487.5" stroke="rgba(0, 168, 126, 1)" stroke-width="4.17"></path><path d="M581.25 487.5 a6.25 6.25 0 1 0 12.5 0 a6.25 6.25 0 1 0 -12.5 0zM106.25 412.5 a6.25 6.25 0 1 0 12.5 0 a6.25 6.25 0 1 0 -12.5 0zM381.25 512.5 a6.25 6.25 0 1 0 12.5 0 a6.25 6.25 0 1 0 -12.5 0zM556.25 512.5 a6.25 6.25 0 1 0 12.5 0 a6.25 6.25 0 1 0 -12.5 0zM81.25 437.5 a6.25 6.25 0 1 0 12.5 0 a6.25 6.25 0 1 0 -12.5 0zM556.25 462.5 a6.25 6.25 0 1 0 12.5 0 a6.25 6.25 0 1 0 -12.5 0zM531.25 512.5 a6.25 6.25 0 1 0 12.5 0 a6.25 6.25 0 1 0 -12.5 0z" fill="rgba(0, 168, 126, 1)"></path><path d="M387.5 162.5L412.5 187.5M337.5 162.5L362.5 137.5L387.5 137.5L412.5 137.5M312.5 162.5L337.5 137.5L362.5 112.5M62.5 162.5L87.5 137.5L112.5 137.5L137.5 137.5M512.5 137.5L537.5 162.5L562.5 162.5L587.5 162.5L612.5 137.5L637.5 137.5L662.5 162.5M12.5 162.5L37.5 137.5L62.5 112.5L87.5 112.5M-12.5 162.5L12.5 162.5L37.5 162.5L62.5 162.5L87.5 162.5L112.5 162.5L137.5 162.5L162.5 162.5L187.5 162.5L212.5 162.5L237.5 162.5L262.5 162.5L287.5 162.5L312.5 162.5L337.5 162.5L362.5 162.5L387.5 162.5L412.5 162.5L437.5 162.5L462.5 137.5L487.5 137.5L512.5 137.5L537.5 137.5L562.5 137.5" stroke="rgba(2, 195, 154, 1)" stroke-width="4.17"></path><path d="M556.25 137.5 a6.25 6.25 0 1 0 12.5 0 a6.25 6.25 0 1 0 -12.5 0zM406.25 187.5 a6.25 6.25 0 1 0 12.5 0 a6.25 6.25 0 1 0 -12.5 0zM406.25 137.5 a6.25 6.25 0 1 0 12.5 0 a6.25 6.25 0 1 0 -12.5 0zM356.25 112.5 a6.25 6.25 0 1 0 12.5 0 a6.25 6.25 0 1 0 -12.5 0zM131.25 137.5 a6.25 6.25 0 1 0 12.5 0 a6.25 6.25 0 1 0 -12.5 0zM656.25 162.5 a6.25 6.25 0 1 0 12.5 0 a6.25 6.25 0 1 0 -12.5 0zM81.25 112.5 a6.25 6.25 0 1 0 12.5 0 a6.25 6.25 0 1 0 -12.5 0z" fill="rgba(2, 195, 154, 1)"></path></g></g><defs><mask id="SvgjsMask1010"><rect width="1440" height="560" fill="#ffffff"></rect></mask><mask id="SvgjsMask1011"><rect width="1440" height="560" fill="white"></rect><path d="M634.37 312.5 a3.13 3.13 0 1 0 6.26 0 a3.13 3.13 0 1 0 -6.26 0zM259.37 362.5 a3.13 3.13 0 1 0 6.26 0 a3.13 3.13 0 1 0 -6.26 0zM334.37 312.5 a3.13 3.13 0 1 0 6.26 0 a3.13 3.13 0 1 0 -6.26 0zM634.37 287.5 a3.13 3.13 0 1 0 6.26 0 a3.13 3.13 0 1 0 -6.26 0zM159.37 287.5 a3.13 3.13 0 1 0 6.26 0 a3.13 3.13 0 1 0 -6.26 0zM384.37 362.5 a3.13 3.13 0 1 0 6.26 0 a3.13 3.13 0 1 0 -6.26 0zM484.37 362.5 a3.13 3.13 0 1 0 6.26 0 a3.13 3.13 0 1 0 -6.26 0z" fill="black"></path><path d="M609.37 237.5 a3.13 3.13 0 1 0 6.26 0 a3.13 3.13 0 1 0 -6.26 0zM484.37 262.5 a3.13 3.13 0 1 0 6.26 0 a3.13 3.13 0 1 0 -6.26 0zM659.37 212.5 a3.13 3.13 0 1 0 6.26 0 a3.13 3.13 0 1 0 -6.26 0zM484.37 212.5 a3.13 3.13 0 1 0 6.26 0 a3.13 3.13 0 1 0 -6.26 0zM334.37 262.5 a3.13 3.13 0 1 0 6.26 0 a3.13 3.13 0 1 0 -6.26 0zM334.37 287.5 a3.13 3.13 0 1 0 6.26 0 a3.13 3.13 0 1 0 -6.26 0zM184.37 262.5 a3.13 3.13 0 1 0 6.26 0 a3.13 3.13 0 1 0 -6.26 0z" fill="black"></path><path d="M259.37 412.5 a3.13 3.13 0 1 0 6.26 0 a3.13 3.13 0 1 0 -6.26 0zM259.37 387.5 a3.13 3.13 0 1 0 6.26 0 a3.13 3.13 0 1 0 -6.26 0zM234.37 387.5 a3.13 3.13 0 1 0 6.26 0 a3.13 3.13 0 1 0 -6.26 0zM209.37 387.5 a3.13 3.13 0 1 0 6.26 0 a3.13 3.13 0 1 0 -6.26 0z" fill="black"></path><path d="M59.37 237.5 a3.13 3.13 0 1 0 6.26 0 a3.13 3.13 0 1 0 -6.26 0z" fill="black"></path><path d="M434.37 437.5 a3.13 3.13 0 1 0 6.26 0 a3.13 3.13 0 1 0 -6.26 0zM359.37 412.5 a3.13 3.13 0 1 0 6.26 0 a3.13 3.13 0 1 0 -6.26 0zM509.37 437.5 a3.13 3.13 0 1 0 6.26 0 a3.13 3.13 0 1 0 -6.26 0zM434.37 462.5 a3.13 3.13 0 1 0 6.26 0 a3.13 3.13 0 1 0 -6.26 0z" fill="black"></path><path d="M134.37 212.5 a3.13 3.13 0 1 0 6.26 0 a3.13 3.13 0 1 0 -6.26 0zM109.37 237.5 a3.13 3.13 0 1 0 6.26 0 a3.13 3.13 0 1 0 -6.26 0z" fill="black"></path><path d="M59.37 362.5 a3.13 3.13 0 1 0 6.26 0 a3.13 3.13 0 1 0 -6.26 0z" fill="black"></path><path d="M309.37 212.5 a3.13 3.13 0 1 0 6.26 0 a3.13 3.13 0 1 0 -6.26 0zM334.37 187.5 a3.13 3.13 0 1 0 6.26 0 a3.13 3.13 0 1 0 -6.26 0zM259.37 187.5 a3.13 3.13 0 1 0 6.26 0 a3.13 3.13 0 1 0 -6.26 0zM209.37 187.5 a3.13 3.13 0 1 0 6.26 0 a3.13 3.13 0 1 0 -6.26 0z" fill="black"></path><path d="M584.37 487.5 a3.13 3.13 0 1 0 6.26 0 a3.13 3.13 0 1 0 -6.26 0zM109.37 412.5 a3.13 3.13 0 1 0 6.26 0 a3.13 3.13 0 1 0 -6.26 0zM384.37 512.5 a3.13 3.13 0 1 0 6.26 0 a3.13 3.13 0 1 0 -6.26 0zM559.37 512.5 a3.13 3.13 0 1 0 6.26 0 a3.13 3.13 0 1 0 -6.26 0zM84.37 437.5 a3.13 3.13 0 1 0 6.26 0 a3.13 3.13 0 1 0 -6.26 0zM559.37 462.5 a3.13 3.13 0 1 0 6.26 0 a3.13 3.13 0 1 0 -6.26 0zM534.37 512.5 a3.13 3.13 0 1 0 6.26 0 a3.13 3.13 0 1 0 -6.26 0z" fill="black"></path><path d="M559.37 137.5 a3.13 3.13 0 1 0 6.26 0 a3.13 3.13 0 1 0 -6.26 0zM409.37 187.5 a3.13 3.13 0 1 0 6.26 0 a3.13 3.13 0 1 0 -6.26 0zM409.37 137.5 a3.13 3.13 0 1 0 6.26 0 a3.13 3.13 0 1 0 -6.26 0zM359.37 112.5 a3.13 3.13 0 1 0 6.26 0 a3.13 3.13 0 1 0 -6.26 0zM134.37 137.5 a3.13 3.13 0 1 0 6.26 0 a3.13 3.13 0 1 0 -6.26 0zM659.37 162.5 a3.13 3.13 0 1 0 6.26 0 a3.13 3.13 0 1 0 -6.26 0zM84.37 112.5 a3.13 3.13 0 1 0 6.26 0 a3.13 3.13 0 1 0 -6.26 0z" fill="black"></path></mask></defs></svg>