<svg width="761" height="887" viewBox="0 0 761 887" fill="none" xmlns="http://www.w3.org/2000/svg">
<path d="M761 443.5L-6.25 886.472L-6.24996 0.527954L761 443.5Z" fill="#111510"/>
<path d="M208.836 444C208.836 407.566 223.085 368.354 250.043 330.603C270.195 302.382 290.161 284.964 291.002 284.236C294.445 281.255 299.555 281.255 302.999 284.236C303.839 284.964 323.805 302.382 343.957 330.603C370.914 368.354 385.164 407.566 385.164 444C385.164 480.434 370.914 519.647 343.957 557.397C323.805 585.618 303.839 603.036 302.999 603.764C299.556 606.745 294.446 606.745 291.002 603.764C290.162 603.036 270.195 585.618 250.043 557.397C223.086 519.647 208.836 480.435 208.836 444ZM296.999 303.724C289.817 310.767 277.187 324.061 264.697 341.614C247.574 365.677 227.16 402.973 227.16 444C227.16 485.027 247.574 522.324 264.697 546.386C277.185 563.937 289.816 577.231 296.999 584.276C304.182 577.233 316.811 563.939 329.302 546.386C346.425 522.324 366.838 485.027 366.838 444C366.838 402.973 346.425 365.677 329.302 341.614C316.814 324.063 304.184 310.769 296.999 303.724Z" fill="#02C39A"/>
<path d="M240.195 444C240.195 412.677 265.678 387.195 296.999 387.195C328.321 387.195 353.804 412.677 353.804 444C353.804 457.775 348.81 471.064 339.74 481.416C336.406 485.223 330.617 485.605 326.811 482.271C323.005 478.937 322.623 473.148 325.957 469.342C332.098 462.332 335.48 453.331 335.48 443.999C335.48 422.781 318.217 405.519 296.999 405.519C275.781 405.519 258.519 422.781 258.519 443.999C258.519 465.219 275.781 482.48 296.999 482.48C302.059 482.48 306.161 486.582 306.161 491.642C306.161 496.702 302.059 500.804 296.999 500.804C265.678 500.806 240.195 475.323 240.195 444Z" fill="#02C39A"/>
<path d="M278.675 444C278.675 433.896 286.895 425.676 296.999 425.676C307.103 425.676 315.323 433.896 315.323 444C315.323 454.105 307.103 462.324 296.999 462.324C286.895 462.324 278.675 454.105 278.675 444Z" fill="#02C39A"/>
</svg>
