<svg width="959" height="841" viewBox="0 0 959 841" fill="none" xmlns="http://www.w3.org/2000/svg">
<path d="M544 0C399.72 0 261.352 57.7357 159.33 160.504C57.3127 263.276 0 402.66 0 548.001C0 693.342 57.3127 832.726 159.33 935.498C261.352 1038.27 399.72 1096 544 1096C688.28 1096 826.648 1038.27 928.669 935.498C1030.69 832.726 1088 693.342 1088 548.001C1088 402.66 1030.69 263.276 928.669 160.504C826.648 57.7357 688.28 0 544 0ZM523.601 33.6336V230.783C443.577 236.42 241.574 302.366 235.658 527.452H48.9698C54.3829 150.313 393.296 41.7668 523.601 33.6336ZM564.399 35.6292C565.75 35.9902 567.004 36.3826 568.071 36.8167C746.733 109.146 759.219 532.57 742.699 648.868L659.973 596.779C667.873 518.325 657.927 293.9 564.399 238.578V35.6292ZM57.2478 568.55H252.173C296.339 603.875 427.455 647.515 630.488 626.684L715.942 680.486C334.085 723.885 102.562 628.887 57.2478 568.55Z" fill="#E36414" fill-opacity="0.2"/>
</svg>
