<svg width="1420" height="996" viewBox="0 0 1420 996" fill="none" xmlns="http://www.w3.org/2000/svg">
<circle cx="948.5" cy="241.5" r="166" fill="#00A87E" stroke="#02C39A"/>
<circle cx="634" cy="485" r="354.5" fill="#02C39A" stroke="#02C39A"/>
<path d="M761 484.5L-6.24998 927.472L-6.24994 41.528L761 484.5Z" fill="#111510"/>
<g clip-path="url(#clip0_26_16)">
<path d="M208.836 485C208.836 448.566 223.085 409.354 250.043 371.603C270.195 343.382 290.161 325.964 291.002 325.236C294.445 322.255 299.555 322.255 302.999 325.236C303.839 325.964 323.805 343.382 343.957 371.603C370.914 409.354 385.164 448.566 385.164 485C385.164 521.434 370.914 560.647 343.957 598.397C323.805 626.618 303.839 644.036 302.999 644.764C299.556 647.745 294.446 647.745 291.002 644.764C290.162 644.036 270.195 626.618 250.043 598.397C223.086 560.647 208.836 521.435 208.836 485ZM296.999 344.724C289.817 351.767 277.187 365.061 264.697 382.614C247.574 406.677 227.16 443.973 227.16 485C227.16 526.027 247.574 563.324 264.697 587.386C277.185 604.937 289.816 618.231 296.999 625.276C304.182 618.233 316.811 604.939 329.302 587.386C346.425 563.324 366.838 526.027 366.838 485C366.838 443.973 346.425 406.677 329.302 382.614C316.814 365.063 304.184 351.769 296.999 344.724Z" fill="#02C39A"/>
<path d="M240.195 485C240.195 453.677 265.678 428.195 296.999 428.195C328.321 428.195 353.804 453.677 353.804 485C353.804 498.775 348.81 512.064 339.74 522.416C336.406 526.223 330.617 526.605 326.811 523.271C323.005 519.937 322.623 514.148 325.957 510.342C332.098 503.332 335.48 494.331 335.48 484.999C335.48 463.781 318.217 446.519 296.999 446.519C275.781 446.519 258.519 463.781 258.519 484.999C258.519 506.219 275.781 523.48 296.999 523.48C302.059 523.48 306.161 527.582 306.161 532.642C306.161 537.702 302.059 541.804 296.999 541.804C265.678 541.806 240.195 516.323 240.195 485Z" fill="#02C39A"/>
<path d="M278.675 485C278.675 474.896 286.895 466.676 296.999 466.676C307.103 466.676 315.323 474.896 315.323 485C315.323 495.105 307.103 503.324 296.999 503.324C286.895 503.324 278.675 495.105 278.675 485Z" fill="#02C39A"/>
</g>
<path d="M793.08 528.08L785.28 556H778.68L773.44 536.12L767.96 556L761.4 556.04L753.88 528.08H759.88L764.8 549.76L770.48 528.08H776.72L782.08 549.64L787.04 528.08H793.08ZM817.337 544.44C817.337 545.24 817.283 545.96 817.177 546.6H800.977C801.11 548.2 801.67 549.453 802.657 550.36C803.643 551.267 804.857 551.72 806.297 551.72C808.377 551.72 809.857 550.827 810.737 549.04H816.777C816.137 551.173 814.91 552.933 813.097 554.32C811.283 555.68 809.057 556.36 806.417 556.36C804.283 556.36 802.363 555.893 800.657 554.96C798.977 554 797.657 552.653 796.697 550.92C795.763 549.187 795.297 547.187 795.297 544.92C795.297 542.627 795.763 540.613 796.697 538.88C797.63 537.147 798.937 535.813 800.617 534.88C802.297 533.947 804.23 533.48 806.417 533.48C808.523 533.48 810.403 533.933 812.057 534.84C813.737 535.747 815.03 537.04 815.937 538.72C816.87 540.373 817.337 542.28 817.337 544.44ZM811.537 542.84C811.51 541.4 810.99 540.253 809.977 539.4C808.963 538.52 807.723 538.08 806.257 538.08C804.87 538.08 803.697 538.507 802.737 539.36C801.803 540.187 801.23 541.347 801.017 542.84H811.537ZM839.435 556.36C837.622 556.36 835.995 556.04 834.555 555.4C833.115 554.733 831.969 553.84 831.115 552.72C830.289 551.6 829.835 550.36 829.755 549H835.395C835.502 549.853 835.915 550.56 836.635 551.12C837.382 551.68 838.302 551.96 839.395 551.96C840.462 551.96 841.289 551.747 841.875 551.32C842.489 550.893 842.795 550.347 842.795 549.68C842.795 548.96 842.422 548.427 841.675 548.08C840.955 547.707 839.795 547.307 838.195 546.88C836.542 546.48 835.182 546.067 834.115 545.64C833.075 545.213 832.169 544.56 831.395 543.68C830.649 542.8 830.275 541.613 830.275 540.12C830.275 538.893 830.622 537.773 831.315 536.76C832.035 535.747 833.049 534.947 834.355 534.36C835.689 533.773 837.249 533.48 839.035 533.48C841.675 533.48 843.782 534.147 845.355 535.48C846.929 536.787 847.795 538.56 847.955 540.8H842.595C842.515 539.92 842.142 539.227 841.475 538.72C840.835 538.187 839.969 537.92 838.875 537.92C837.862 537.92 837.075 538.107 836.515 538.48C835.982 538.853 835.715 539.373 835.715 540.04C835.715 540.787 836.089 541.36 836.835 541.76C837.582 542.133 838.742 542.52 840.315 542.92C841.915 543.32 843.235 543.733 844.275 544.16C845.315 544.587 846.209 545.253 846.955 546.16C847.729 547.04 848.129 548.213 848.155 549.68C848.155 550.96 847.795 552.107 847.075 553.12C846.382 554.133 845.369 554.933 844.035 555.52C842.729 556.08 841.195 556.36 839.435 556.36ZM873.352 544.44C873.352 545.24 873.299 545.96 873.192 546.6H856.992C857.126 548.2 857.686 549.453 858.672 550.36C859.659 551.267 860.872 551.72 862.312 551.72C864.392 551.72 865.872 550.827 866.752 549.04H872.792C872.152 551.173 870.926 552.933 869.112 554.32C867.299 555.68 865.072 556.36 862.432 556.36C860.299 556.36 858.379 555.893 856.672 554.96C854.992 554 853.672 552.653 852.712 550.92C851.779 549.187 851.312 547.187 851.312 544.92C851.312 542.627 851.779 540.613 852.712 538.88C853.646 537.147 854.952 535.813 856.632 534.88C858.312 533.947 860.246 533.48 862.432 533.48C864.539 533.48 866.419 533.933 868.072 534.84C869.752 535.747 871.046 537.04 871.952 538.72C872.886 540.373 873.352 542.28 873.352 544.44ZM867.552 542.84C867.526 541.4 867.006 540.253 865.992 539.4C864.979 538.52 863.739 538.08 862.272 538.08C860.886 538.08 859.712 538.507 858.752 539.36C857.819 540.187 857.246 541.347 857.032 542.84H867.552ZM898.04 544.44C898.04 545.24 897.986 545.96 897.88 546.6H881.68C881.813 548.2 882.373 549.453 883.36 550.36C884.346 551.267 885.56 551.72 887 551.72C889.08 551.72 890.56 550.827 891.44 549.04H897.48C896.84 551.173 895.613 552.933 893.8 554.32C891.986 555.68 889.76 556.36 887.12 556.36C884.986 556.36 883.066 555.893 881.36 554.96C879.68 554 878.36 552.653 877.4 550.92C876.466 549.187 876 547.187 876 544.92C876 542.627 876.466 540.613 877.4 538.88C878.333 537.147 879.64 535.813 881.32 534.88C883 533.947 884.933 533.48 887.12 533.48C889.226 533.48 891.106 533.933 892.76 534.84C894.44 535.747 895.733 537.04 896.64 538.72C897.573 540.373 898.04 542.28 898.04 544.44ZM892.24 542.84C892.213 541.4 891.693 540.253 890.68 539.4C889.666 538.52 888.426 538.08 886.96 538.08C885.573 538.08 884.4 538.507 883.44 539.36C882.506 540.187 881.933 541.347 881.72 542.84H892.24ZM917.258 537.08C917.978 536.013 918.965 535.147 920.218 534.48C921.498 533.813 922.952 533.48 924.578 533.48C926.472 533.48 928.178 533.947 929.698 534.88C931.245 535.813 932.458 537.147 933.338 538.88C934.245 540.587 934.698 542.573 934.698 544.84C934.698 547.107 934.245 549.12 933.338 550.88C932.458 552.613 931.245 553.96 929.698 554.92C928.178 555.88 926.472 556.36 924.578 556.36C922.925 556.36 921.472 556.04 920.218 555.4C918.992 554.733 918.005 553.88 917.258 552.84V556H911.658V526.4H917.258V537.08ZM928.978 544.84C928.978 543.507 928.698 542.36 928.138 541.4C927.605 540.413 926.885 539.667 925.978 539.16C925.098 538.653 924.138 538.4 923.098 538.4C922.085 538.4 921.125 538.667 920.218 539.2C919.338 539.707 918.618 540.453 918.058 541.44C917.525 542.427 917.258 543.587 917.258 544.92C917.258 546.253 917.525 547.413 918.058 548.4C918.618 549.387 919.338 550.147 920.218 550.68C921.125 551.187 922.085 551.44 923.098 551.44C924.138 551.44 925.098 551.173 925.978 550.64C926.885 550.107 927.605 549.347 928.138 548.36C928.698 547.373 928.978 546.2 928.978 544.84ZM959.368 544.44C959.368 545.24 959.314 545.96 959.208 546.6H943.008C943.141 548.2 943.701 549.453 944.688 550.36C945.674 551.267 946.888 551.72 948.328 551.72C950.408 551.72 951.888 550.827 952.768 549.04H958.808C958.168 551.173 956.941 552.933 955.128 554.32C953.314 555.68 951.088 556.36 948.448 556.36C946.314 556.36 944.394 555.893 942.688 554.96C941.008 554 939.688 552.653 938.728 550.92C937.794 549.187 937.328 547.187 937.328 544.92C937.328 542.627 937.794 540.613 938.728 538.88C939.661 537.147 940.968 535.813 942.648 534.88C944.328 533.947 946.261 533.48 948.448 533.48C950.554 533.48 952.434 533.933 954.088 534.84C955.768 535.747 957.061 537.04 957.968 538.72C958.901 540.373 959.368 542.28 959.368 544.44ZM953.568 542.84C953.541 541.4 953.021 540.253 952.008 539.4C950.994 538.52 949.754 538.08 948.288 538.08C946.901 538.08 945.728 538.507 944.768 539.36C943.834 540.187 943.261 541.347 943.048 542.84H953.568ZM984.655 533.84L970.935 566.48H964.975L969.775 555.44L960.895 533.84H967.175L972.895 549.32L978.695 533.84H984.655Z" fill="#F7F7F7"/>
<path d="M997.514 556.36C995.381 556.36 993.461 555.893 991.754 554.96C990.047 554 988.701 552.653 987.714 550.92C986.754 549.187 986.274 547.187 986.274 544.92C986.274 542.653 986.767 540.653 987.754 538.92C988.767 537.187 990.141 535.853 991.874 534.92C993.607 533.96 995.541 533.48 997.674 533.48C999.807 533.48 1001.74 533.96 1003.47 534.92C1005.21 535.853 1006.57 537.187 1007.55 538.92C1008.57 540.653 1009.07 542.653 1009.07 544.92C1009.07 547.187 1008.55 549.187 1007.51 550.92C1006.5 552.653 1005.11 554 1003.35 554.96C1001.62 555.893 999.674 556.36 997.514 556.36ZM997.514 551.48C998.527 551.48 999.474 551.24 1000.35 550.76C1001.26 550.253 1001.98 549.507 1002.51 548.52C1003.05 547.533 1003.31 546.333 1003.31 544.92C1003.31 542.813 1002.75 541.2 1001.63 540.08C1000.54 538.933 999.194 538.36 997.594 538.36C995.994 538.36 994.647 538.933 993.554 540.08C992.487 541.2 991.954 542.813 991.954 544.92C991.954 547.027 992.474 548.653 993.514 549.8C994.581 550.92 995.914 551.48 997.514 551.48ZM1025.46 533.52C1028.1 533.52 1030.24 534.36 1031.86 536.04C1033.49 537.693 1034.3 540.013 1034.3 543V556H1028.7V543.76C1028.7 542 1028.26 540.653 1027.38 539.72C1026.5 538.76 1025.3 538.28 1023.78 538.28C1022.24 538.28 1021.01 538.76 1020.1 539.72C1019.22 540.653 1018.78 542 1018.78 543.76V556H1013.18V533.84H1018.78V536.6C1019.53 535.64 1020.48 534.893 1021.62 534.36C1022.8 533.8 1024.08 533.52 1025.46 533.52ZM1038.19 544.84C1038.19 542.6 1038.63 540.613 1039.51 538.88C1040.41 537.147 1041.64 535.813 1043.19 534.88C1044.73 533.947 1046.45 533.48 1048.35 533.48C1049.79 533.48 1051.16 533.8 1052.47 534.44C1053.77 535.053 1054.81 535.88 1055.59 536.92V526.4H1061.27V556H1055.59V552.72C1054.89 553.813 1053.92 554.693 1052.67 555.36C1051.41 556.027 1049.96 556.36 1048.31 556.36C1046.44 556.36 1044.73 555.88 1043.19 554.92C1041.64 553.96 1040.41 552.613 1039.51 550.88C1038.63 549.12 1038.19 547.107 1038.19 544.84ZM1055.63 544.92C1055.63 543.56 1055.36 542.4 1054.83 541.44C1054.29 540.453 1053.57 539.707 1052.67 539.2C1051.76 538.667 1050.79 538.4 1049.75 538.4C1048.71 538.4 1047.75 538.653 1046.87 539.16C1045.99 539.667 1045.27 540.413 1044.71 541.4C1044.17 542.36 1043.91 543.507 1043.91 544.84C1043.91 546.173 1044.17 547.347 1044.71 548.36C1045.27 549.347 1045.99 550.107 1046.87 550.64C1047.77 551.173 1048.73 551.44 1049.75 551.44C1050.79 551.44 1051.76 551.187 1052.67 550.68C1053.57 550.147 1054.29 549.4 1054.83 548.44C1055.36 547.453 1055.63 546.28 1055.63 544.92ZM1106.99 533.84L1100.51 556H1094.47L1090.43 540.52L1086.39 556H1080.31L1073.79 533.84H1079.47L1083.39 550.72L1087.63 533.84H1093.55L1097.71 550.68L1101.63 533.84H1106.99ZM1122.5 533.52C1124.18 533.52 1125.67 533.893 1126.98 534.64C1128.28 535.36 1129.3 536.44 1130.02 537.88C1130.76 539.293 1131.14 541 1131.14 543V556H1125.54V543.76C1125.54 542 1125.1 540.653 1124.22 539.72C1123.34 538.76 1122.14 538.28 1120.62 538.28C1119.07 538.28 1117.84 538.76 1116.94 539.72C1116.06 540.653 1115.62 542 1115.62 543.76V556H1110.02V526.4H1115.62V536.6C1116.34 535.64 1117.3 534.893 1118.5 534.36C1119.7 533.8 1121.03 533.52 1122.5 533.52ZM1135.02 544.84C1135.02 542.6 1135.46 540.613 1136.34 538.88C1137.25 537.147 1138.46 535.813 1139.98 534.88C1141.53 533.947 1143.25 533.48 1145.14 533.48C1146.8 533.48 1148.24 533.813 1149.46 534.48C1150.72 535.147 1151.72 535.987 1152.46 537V533.84H1158.1V556H1152.46V552.76C1151.74 553.8 1150.74 554.667 1149.46 555.36C1148.21 556.027 1146.76 556.36 1145.1 556.36C1143.24 556.36 1141.53 555.88 1139.98 554.92C1138.46 553.96 1137.25 552.613 1136.34 550.88C1135.46 549.12 1135.02 547.107 1135.02 544.84ZM1152.46 544.92C1152.46 543.56 1152.2 542.4 1151.66 541.44C1151.13 540.453 1150.41 539.707 1149.5 539.2C1148.6 538.667 1147.62 538.4 1146.58 538.4C1145.54 538.4 1144.58 538.653 1143.7 539.16C1142.82 539.667 1142.1 540.413 1141.54 541.4C1141.01 542.36 1140.74 543.507 1140.74 544.84C1140.74 546.173 1141.01 547.347 1141.54 548.36C1142.1 549.347 1142.82 550.107 1143.7 550.64C1144.61 551.173 1145.57 551.44 1146.58 551.44C1147.62 551.44 1148.6 551.187 1149.5 550.68C1150.41 550.147 1151.13 549.4 1151.66 548.44C1152.2 547.453 1152.46 546.28 1152.46 544.92ZM1170.09 538.44V549.16C1170.09 549.907 1170.27 550.453 1170.61 550.8C1170.99 551.12 1171.6 551.28 1172.45 551.28H1175.05V556H1171.53C1166.81 556 1164.45 553.707 1164.45 549.12V538.44H1161.81V533.84H1164.45V528.36H1170.09V533.84H1175.05V538.44H1170.09ZM1191.45 531.2C1190.46 531.2 1189.64 530.893 1188.97 530.28C1188.33 529.64 1188.01 528.853 1188.01 527.92C1188.01 526.987 1188.33 526.213 1188.97 525.6C1189.64 524.96 1190.46 524.64 1191.45 524.64C1192.44 524.64 1193.25 524.96 1193.89 525.6C1194.56 526.213 1194.89 526.987 1194.89 527.92C1194.89 528.853 1194.56 529.64 1193.89 530.28C1193.25 530.893 1192.44 531.2 1191.45 531.2ZM1194.21 533.84V556H1188.61V533.84H1194.21ZM1208.22 556.36C1206.41 556.36 1204.78 556.04 1203.34 555.4C1201.9 554.733 1200.76 553.84 1199.9 552.72C1199.08 551.6 1198.62 550.36 1198.54 549H1204.18C1204.29 549.853 1204.7 550.56 1205.42 551.12C1206.17 551.68 1207.09 551.96 1208.18 551.96C1209.25 551.96 1210.08 551.747 1210.66 551.32C1211.28 550.893 1211.58 550.347 1211.58 549.68C1211.58 548.96 1211.21 548.427 1210.46 548.08C1209.74 547.707 1208.58 547.307 1206.98 546.88C1205.33 546.48 1203.97 546.067 1202.9 545.64C1201.86 545.213 1200.96 544.56 1200.18 543.68C1199.44 542.8 1199.06 541.613 1199.06 540.12C1199.06 538.893 1199.41 537.773 1200.1 536.76C1200.82 535.747 1201.84 534.947 1203.14 534.36C1204.48 533.773 1206.04 533.48 1207.82 533.48C1210.46 533.48 1212.57 534.147 1214.14 535.48C1215.72 536.787 1216.58 538.56 1216.74 540.8H1211.38C1211.3 539.92 1210.93 539.227 1210.26 538.72C1209.62 538.187 1208.76 537.92 1207.66 537.92C1206.65 537.92 1205.86 538.107 1205.3 538.48C1204.77 538.853 1204.5 539.373 1204.5 540.04C1204.5 540.787 1204.88 541.36 1205.62 541.76C1206.37 542.133 1207.53 542.52 1209.1 542.92C1210.7 543.32 1212.02 543.733 1213.06 544.16C1214.1 544.587 1215 545.253 1215.74 546.16C1216.52 547.04 1216.92 548.213 1216.94 549.68C1216.94 550.96 1216.58 552.107 1215.86 553.12C1215.17 554.133 1214.16 554.933 1212.82 555.52C1211.52 556.08 1209.98 556.36 1208.22 556.36ZM1239.55 556.36C1237.74 556.36 1236.11 556.04 1234.67 555.4C1233.23 554.733 1232.09 553.84 1231.23 552.72C1230.41 551.6 1229.95 550.36 1229.87 549H1235.51C1235.62 549.853 1236.03 550.56 1236.75 551.12C1237.5 551.68 1238.42 551.96 1239.51 551.96C1240.58 551.96 1241.41 551.747 1241.99 551.32C1242.61 550.893 1242.91 550.347 1242.91 549.68C1242.91 548.96 1242.54 548.427 1241.79 548.08C1241.07 547.707 1239.91 547.307 1238.31 546.88C1236.66 546.48 1235.3 546.067 1234.23 545.64C1233.19 545.213 1232.29 544.56 1231.51 543.68C1230.77 542.8 1230.39 541.613 1230.39 540.12C1230.39 538.893 1230.74 537.773 1231.43 536.76C1232.15 535.747 1233.17 534.947 1234.47 534.36C1235.81 533.773 1237.37 533.48 1239.15 533.48C1241.79 533.48 1243.9 534.147 1245.47 535.48C1247.05 536.787 1247.91 538.56 1248.07 540.8H1242.71C1242.63 539.92 1242.26 539.227 1241.59 538.72C1240.95 538.187 1240.09 537.92 1238.99 537.92C1237.98 537.92 1237.19 538.107 1236.63 538.48C1236.1 538.853 1235.83 539.373 1235.83 540.04C1235.83 540.787 1236.21 541.36 1236.95 541.76C1237.7 542.133 1238.86 542.52 1240.43 542.92C1242.03 543.32 1243.35 543.733 1244.39 544.16C1245.43 544.587 1246.33 545.253 1247.07 546.16C1247.85 547.04 1248.25 548.213 1248.27 549.68C1248.27 550.96 1247.91 552.107 1247.19 553.12C1246.5 554.133 1245.49 554.933 1244.15 555.52C1242.85 556.08 1241.31 556.36 1239.55 556.36ZM1273.47 544.44C1273.47 545.24 1273.42 545.96 1273.31 546.6H1257.11C1257.24 548.2 1257.8 549.453 1258.79 550.36C1259.78 551.267 1260.99 551.72 1262.43 551.72C1264.51 551.72 1265.99 550.827 1266.87 549.04H1272.91C1272.27 551.173 1271.04 552.933 1269.23 554.32C1267.42 555.68 1265.19 556.36 1262.55 556.36C1260.42 556.36 1258.5 555.893 1256.79 554.96C1255.11 554 1253.79 552.653 1252.83 550.92C1251.9 549.187 1251.43 547.187 1251.43 544.92C1251.43 542.627 1251.9 540.613 1252.83 538.88C1253.76 537.147 1255.07 535.813 1256.75 534.88C1258.43 533.947 1260.36 533.48 1262.55 533.48C1264.66 533.48 1266.54 533.933 1268.19 534.84C1269.87 535.747 1271.16 537.04 1272.07 538.72C1273 540.373 1273.47 542.28 1273.47 544.44ZM1267.67 542.84C1267.64 541.4 1267.12 540.253 1266.11 539.4C1265.1 538.52 1263.86 538.08 1262.39 538.08C1261 538.08 1259.83 538.507 1258.87 539.36C1257.94 540.187 1257.36 541.347 1257.15 542.84H1267.67ZM1298.16 544.44C1298.16 545.24 1298.1 545.96 1298 546.6H1281.8C1281.93 548.2 1282.49 549.453 1283.48 550.36C1284.46 551.267 1285.68 551.72 1287.12 551.72C1289.2 551.72 1290.68 550.827 1291.56 549.04H1297.6C1296.96 551.173 1295.73 552.933 1293.92 554.32C1292.1 555.68 1289.88 556.36 1287.24 556.36C1285.1 556.36 1283.18 555.893 1281.48 554.96C1279.8 554 1278.48 552.653 1277.52 550.92C1276.58 549.187 1276.12 547.187 1276.12 544.92C1276.12 542.627 1276.58 540.613 1277.52 538.88C1278.45 537.147 1279.76 535.813 1281.44 534.88C1283.12 533.947 1285.05 533.48 1287.24 533.48C1289.34 533.48 1291.22 533.933 1292.88 534.84C1294.56 535.747 1295.85 537.04 1296.76 538.72C1297.69 540.373 1298.16 542.28 1298.16 544.44ZM1292.36 542.84C1292.33 541.4 1291.81 540.253 1290.8 539.4C1289.78 538.52 1288.54 538.08 1287.08 538.08C1285.69 538.08 1284.52 538.507 1283.56 539.36C1282.62 540.187 1282.05 541.347 1281.84 542.84H1292.36ZM1314.52 533.52C1317.16 533.52 1319.3 534.36 1320.92 536.04C1322.55 537.693 1323.36 540.013 1323.36 543V556H1317.76V543.76C1317.76 542 1317.32 540.653 1316.44 539.72C1315.56 538.76 1314.36 538.28 1312.84 538.28C1311.3 538.28 1310.07 538.76 1309.16 539.72C1308.28 540.653 1307.84 542 1307.84 543.76V556H1302.24V533.84H1307.84V536.6C1308.59 535.64 1309.54 534.893 1310.68 534.36C1311.86 533.8 1313.14 533.52 1314.52 533.52Z" fill="#111510"/>
<defs>
<clipPath id="clip0_26_16">
<rect width="324" height="324" fill="white" transform="translate(459 323) rotate(90)"/>
</clipPath>
</defs>
</svg>
