<svg width="348" height="345" viewBox="0 0 348 345" fill="none" xmlns="http://www.w3.org/2000/svg">
<circle cx="67.1906" cy="41.6656" r="41.1657" transform="rotate(-90 67.1906 41.6656)" fill="#00A87E" stroke="#02C39A"/>
<circle cx="128.125" cy="120.367" r="88.3368" transform="rotate(-90 128.125 120.367)" fill="#02C39A" stroke="#02C39A"/>
<path d="M128 88.5865L238.851 280.587H17.1488L128 88.5865Z" fill="#111510"/>
<g clip-path="url(#clip0_67_164)">
<path d="M128.125 226.762C119.008 226.762 109.195 223.197 99.7481 216.451C92.686 211.408 88.3272 206.411 88.1451 206.201C87.3989 205.339 87.3989 204.06 88.1451 203.199C88.3272 202.989 92.6858 197.992 99.7481 192.949C109.195 186.203 119.008 182.637 128.125 182.637C137.243 182.637 147.055 186.203 156.502 192.949C163.564 197.992 167.923 202.988 168.105 203.199C168.851 204.06 168.851 205.339 168.105 206.201C167.923 206.411 163.564 211.408 156.502 216.451C147.055 223.197 137.243 226.762 128.125 226.762ZM93.0217 204.7C94.7843 206.497 98.111 209.658 102.503 212.784C108.525 217.068 117.858 222.177 128.125 222.177C138.392 222.177 147.725 217.068 153.747 212.784C158.139 209.658 161.465 206.498 163.228 204.7C161.466 202.903 158.139 199.742 153.747 196.617C147.725 192.331 138.392 187.223 128.125 187.223C117.858 187.223 108.525 192.331 102.503 196.617C98.1116 199.742 94.7847 202.902 93.0217 204.7Z" fill="#02C39A"/>
<path d="M128.125 218.915C120.287 218.915 113.91 212.538 113.91 204.7C113.91 196.862 120.287 190.485 128.125 190.485C131.572 190.485 134.898 191.735 137.488 194.004C138.441 194.839 138.537 196.287 137.702 197.24C136.868 198.192 135.419 198.288 134.467 197.454C132.713 195.917 130.46 195.07 128.125 195.07C122.815 195.07 118.495 199.39 118.495 204.7C118.495 210.01 122.815 214.33 128.125 214.33C133.435 214.33 137.754 210.01 137.754 204.7C137.754 203.434 138.781 202.407 140.047 202.407C141.313 202.407 142.34 203.434 142.34 204.7C142.34 212.538 135.963 218.915 128.125 218.915Z" fill="#02C39A"/>
<path d="M128.125 209.286C125.597 209.286 123.54 207.229 123.54 204.7C123.54 202.172 125.597 200.115 128.125 200.115C130.654 200.115 132.711 202.172 132.711 204.7C132.711 207.229 130.654 209.286 128.125 209.286Z" fill="#02C39A"/>
</g>
<circle cx="67.1906" cy="41.6656" r="41.1657" transform="rotate(-90 67.1906 41.6656)" fill="#00A87E" stroke="#02C39A"/>
<circle cx="128.125" cy="120.367" r="88.3368" transform="rotate(-90 128.125 120.367)" fill="#02C39A" stroke="#02C39A"/>
<path d="M128 88.5865L238.851 280.587H17.1488L128 88.5865Z" fill="#111510"/>
<g clip-path="url(#clip1_67_164)">
<path d="M128.125 226.762C119.008 226.762 109.195 223.197 99.7481 216.451C92.686 211.408 88.3272 206.411 88.1451 206.201C87.3989 205.339 87.3989 204.06 88.1451 203.199C88.3272 202.989 92.6858 197.992 99.7481 192.949C109.195 186.203 119.008 182.637 128.125 182.637C137.243 182.637 147.055 186.203 156.502 192.949C163.564 197.992 167.923 202.988 168.105 203.199C168.851 204.06 168.851 205.339 168.105 206.201C167.923 206.411 163.564 211.408 156.502 216.451C147.055 223.197 137.243 226.762 128.125 226.762ZM93.0217 204.7C94.7843 206.497 98.111 209.658 102.503 212.784C108.525 217.068 117.858 222.177 128.125 222.177C138.392 222.177 147.725 217.068 153.747 212.784C158.139 209.658 161.465 206.498 163.228 204.7C161.466 202.903 158.139 199.742 153.747 196.617C147.725 192.331 138.392 187.223 128.125 187.223C117.858 187.223 108.525 192.331 102.503 196.617C98.1116 199.742 94.7847 202.902 93.0217 204.7Z" fill="#02C39A"/>
<path d="M128.125 218.915C120.287 218.915 113.91 212.538 113.91 204.7C113.91 196.862 120.287 190.485 128.125 190.485C131.572 190.485 134.898 191.735 137.488 194.004C138.441 194.839 138.537 196.287 137.702 197.24C136.868 198.192 135.419 198.288 134.467 197.454C132.713 195.917 130.46 195.07 128.125 195.07C122.815 195.07 118.495 199.39 118.495 204.7C118.495 210.01 122.815 214.33 128.125 214.33C133.435 214.33 137.754 210.01 137.754 204.7C137.754 203.434 138.781 202.407 140.047 202.407C141.313 202.407 142.34 203.434 142.34 204.7C142.34 212.538 135.963 218.915 128.125 218.915Z" fill="#02C39A"/>
<path d="M128.125 209.286C125.597 209.286 123.54 207.229 123.54 204.7C123.54 202.172 125.597 200.115 128.125 200.115C130.654 200.115 132.711 202.172 132.711 204.7C132.711 207.229 130.654 209.286 128.125 209.286Z" fill="#02C39A"/>
</g>
<path d="M131.032 74.8319L127.912 85.9999H125.272L123.176 78.0479L120.984 85.9999L118.36 86.0159L115.352 74.8319H117.752L119.72 83.5039L121.992 74.8319H124.488L126.632 83.4559L128.616 74.8319H131.032ZM140.735 81.3759C140.735 81.6959 140.713 81.9839 140.671 82.2399H134.191C134.244 82.8799 134.468 83.3812 134.863 83.7439C135.257 84.1065 135.743 84.2879 136.319 84.2879C137.151 84.2879 137.743 83.9305 138.095 83.2159H140.511C140.255 84.0692 139.764 84.7732 139.039 85.3279C138.313 85.8719 137.423 86.1439 136.367 86.1439C135.513 86.1439 134.745 85.9572 134.063 85.5839C133.391 85.1999 132.863 84.6612 132.479 83.9679C132.105 83.2745 131.919 82.4745 131.919 81.5679C131.919 80.6505 132.105 79.8452 132.479 79.1519C132.852 78.4585 133.375 77.9252 134.047 77.5519C134.719 77.1785 135.492 76.9919 136.367 76.9919C137.209 76.9919 137.961 77.1732 138.623 77.5359C139.295 77.8985 139.812 78.4159 140.175 79.0879C140.548 79.7492 140.735 80.5119 140.735 81.3759ZM138.415 80.7359C138.404 80.1599 138.196 79.7012 137.791 79.3599C137.385 79.0079 136.889 78.8319 136.303 78.8319C135.748 78.8319 135.279 79.0025 134.895 79.3439C134.521 79.6745 134.292 80.1385 134.207 80.7359H138.415ZM149.574 86.1439C148.849 86.1439 148.198 86.0159 147.622 85.7599C147.046 85.4932 146.587 85.1359 146.246 84.6879C145.915 84.2399 145.734 83.7439 145.702 83.1999H147.958C148.001 83.5412 148.166 83.8239 148.454 84.0479C148.753 84.2719 149.121 84.3839 149.558 84.3839C149.985 84.3839 150.315 84.2985 150.55 84.1279C150.795 83.9572 150.918 83.7385 150.918 83.4719C150.918 83.1839 150.769 82.9705 150.47 82.8319C150.182 82.6825 149.718 82.5225 149.078 82.3519C148.417 82.1919 147.873 82.0265 147.446 81.8559C147.03 81.6852 146.667 81.4239 146.358 81.0719C146.059 80.7199 145.91 80.2452 145.91 79.6479C145.91 79.1572 146.049 78.7092 146.326 78.3039C146.614 77.8985 147.019 77.5785 147.542 77.3439C148.075 77.1092 148.699 76.9919 149.414 76.9919C150.47 76.9919 151.313 77.2585 151.942 77.7919C152.571 78.3145 152.918 79.0239 152.982 79.9199H150.838C150.806 79.5679 150.657 79.2905 150.39 79.0879C150.134 78.8745 149.787 78.7679 149.35 78.7679C148.945 78.7679 148.63 78.8425 148.406 78.9919C148.193 79.1412 148.086 79.3492 148.086 79.6159C148.086 79.9145 148.235 80.1439 148.534 80.3039C148.833 80.4532 149.297 80.6079 149.926 80.7679C150.566 80.9279 151.094 81.0932 151.51 81.2639C151.926 81.4345 152.283 81.7012 152.582 82.0639C152.891 82.4159 153.051 82.8852 153.062 83.4719C153.062 83.9839 152.918 84.4425 152.63 84.8479C152.353 85.2532 151.947 85.5732 151.414 85.8079C150.891 86.0319 150.278 86.1439 149.574 86.1439ZM163.141 81.3759C163.141 81.6959 163.12 81.9839 163.077 82.2399H156.597C156.65 82.8799 156.874 83.3812 157.269 83.7439C157.664 84.1065 158.149 84.2879 158.725 84.2879C159.557 84.2879 160.149 83.9305 160.501 83.2159H162.917C162.661 84.0692 162.17 84.7732 161.445 85.3279C160.72 85.8719 159.829 86.1439 158.773 86.1439C157.92 86.1439 157.152 85.9572 156.469 85.5839C155.797 85.1999 155.269 84.6612 154.885 83.9679C154.512 83.2745 154.325 82.4745 154.325 81.5679C154.325 80.6505 154.512 79.8452 154.885 79.1519C155.258 78.4585 155.781 77.9252 156.453 77.5519C157.125 77.1785 157.898 76.9919 158.773 76.9919C159.616 76.9919 160.368 77.1732 161.029 77.5359C161.701 77.8985 162.218 78.4159 162.581 79.0879C162.954 79.7492 163.141 80.5119 163.141 81.3759ZM160.821 80.7359C160.81 80.1599 160.602 79.7012 160.197 79.3599C159.792 79.0079 159.296 78.8319 158.709 78.8319C158.154 78.8319 157.685 79.0025 157.301 79.3439C156.928 79.6745 156.698 80.1385 156.613 80.7359H160.821ZM173.016 81.3759C173.016 81.6959 172.995 81.9839 172.952 82.2399H166.472C166.525 82.8799 166.749 83.3812 167.144 83.7439C167.539 84.1065 168.024 84.2879 168.6 84.2879C169.432 84.2879 170.024 83.9305 170.376 83.2159H172.792C172.536 84.0692 172.045 84.7732 171.32 85.3279C170.595 85.8719 169.704 86.1439 168.648 86.1439C167.795 86.1439 167.027 85.9572 166.344 85.5839C165.672 85.1999 165.144 84.6612 164.76 83.9679C164.387 83.2745 164.2 82.4745 164.2 81.5679C164.2 80.6505 164.387 79.8452 164.76 79.1519C165.133 78.4585 165.656 77.9252 166.328 77.5519C167 77.1785 167.773 76.9919 168.648 76.9919C169.491 76.9919 170.243 77.1732 170.904 77.5359C171.576 77.8985 172.093 78.4159 172.456 79.0879C172.829 79.7492 173.016 80.5119 173.016 81.3759ZM170.696 80.7359C170.685 80.1599 170.477 79.7012 170.072 79.3599C169.667 79.0079 169.171 78.8319 168.584 78.8319C168.029 78.8319 167.56 79.0025 167.176 79.3439C166.803 79.6745 166.573 80.1385 166.488 80.7359H170.696ZM180.703 78.4319C180.991 78.0052 181.386 77.6585 181.887 77.3919C182.399 77.1252 182.981 76.9919 183.631 76.9919C184.389 76.9919 185.071 77.1785 185.679 77.5519C186.298 77.9252 186.783 78.4585 187.135 79.1519C187.498 79.8345 187.679 80.6292 187.679 81.5359C187.679 82.4425 187.498 83.2479 187.135 83.9519C186.783 84.6452 186.298 85.1839 185.679 85.5679C185.071 85.9519 184.389 86.1439 183.631 86.1439C182.97 86.1439 182.389 86.0159 181.887 85.7599C181.397 85.4932 181.002 85.1519 180.703 84.7359V85.9999H178.463V74.1599H180.703V78.4319ZM185.391 81.5359C185.391 81.0025 185.279 80.5439 185.055 80.1599C184.842 79.7652 184.554 79.4665 184.191 79.2639C183.839 79.0612 183.455 78.9599 183.039 78.9599C182.634 78.9599 182.25 79.0665 181.887 79.2799C181.535 79.4825 181.247 79.7812 181.023 80.1759C180.81 80.5705 180.703 81.0345 180.703 81.5679C180.703 82.1012 180.81 82.5652 181.023 82.9599C181.247 83.3545 181.535 83.6585 181.887 83.8719C182.25 84.0745 182.634 84.1759 183.039 84.1759C183.455 84.1759 183.839 84.0692 184.191 83.8559C184.554 83.6425 184.842 83.3385 185.055 82.9439C185.279 82.5492 185.391 82.0799 185.391 81.5359ZM197.547 81.3759C197.547 81.6959 197.526 81.9839 197.483 82.2399H191.003C191.056 82.8799 191.28 83.3812 191.675 83.7439C192.07 84.1065 192.555 84.2879 193.131 84.2879C193.963 84.2879 194.555 83.9305 194.907 83.2159H197.323C197.067 84.0692 196.576 84.7732 195.851 85.3279C195.126 85.8719 194.235 86.1439 193.179 86.1439C192.326 86.1439 191.558 85.9572 190.875 85.5839C190.203 85.1999 189.675 84.6612 189.291 83.9679C188.918 83.2745 188.731 82.4745 188.731 81.5679C188.731 80.6505 188.918 79.8452 189.291 79.1519C189.664 78.4585 190.187 77.9252 190.859 77.5519C191.531 77.1785 192.304 76.9919 193.179 76.9919C194.022 76.9919 194.774 77.1732 195.435 77.5359C196.107 77.8985 196.624 78.4159 196.987 79.0879C197.36 79.7492 197.547 80.5119 197.547 81.3759ZM195.227 80.7359C195.216 80.1599 195.008 79.7012 194.603 79.3599C194.198 79.0079 193.702 78.8319 193.115 78.8319C192.56 78.8319 192.091 79.0025 191.707 79.3439C191.334 79.6745 191.104 80.1385 191.019 80.7359H195.227ZM207.662 77.1359L202.174 90.1919H199.79L201.71 85.7759L198.158 77.1359H200.67L202.958 83.3279L205.278 77.1359H207.662Z" fill="#F7F7F7"/>
<path d="M212.806 86.1439C211.952 86.1439 211.184 85.9572 210.502 85.5839C209.819 85.1999 209.28 84.6612 208.886 83.9679C208.502 83.2745 208.31 82.4745 208.31 81.5679C208.31 80.6612 208.507 79.8612 208.902 79.1679C209.307 78.4745 209.856 77.9412 210.55 77.5679C211.243 77.1839 212.016 76.9919 212.87 76.9919C213.723 76.9919 214.496 77.1839 215.19 77.5679C215.883 77.9412 216.427 78.4745 216.822 79.1679C217.227 79.8612 217.43 80.6612 217.43 81.5679C217.43 82.4745 217.222 83.2745 216.806 83.9679C216.4 84.6612 215.846 85.1999 215.142 85.5839C214.448 85.9572 213.67 86.1439 212.806 86.1439ZM212.806 84.1919C213.211 84.1919 213.59 84.0959 213.942 83.9039C214.304 83.7012 214.592 83.4025 214.806 83.0079C215.019 82.6132 215.126 82.1332 215.126 81.5679C215.126 80.7252 214.902 80.0799 214.454 79.6319C214.016 79.1732 213.478 78.9439 212.838 78.9439C212.198 78.9439 211.659 79.1732 211.222 79.6319C210.795 80.0799 210.582 80.7252 210.582 81.5679C210.582 82.4105 210.79 83.0612 211.206 83.5199C211.632 83.9679 212.166 84.1919 212.806 84.1919ZM223.985 77.0079C225.041 77.0079 225.894 77.3439 226.545 78.0159C227.195 78.6772 227.521 79.6052 227.521 80.7999V85.9999H225.281V81.1039C225.281 80.3999 225.105 79.8612 224.753 79.4879C224.401 79.1039 223.921 78.9119 223.313 78.9119C222.694 78.9119 222.203 79.1039 221.841 79.4879C221.489 79.8612 221.313 80.3999 221.313 81.1039V85.9999H219.073V77.1359H221.313V78.2399C221.611 77.8559 221.99 77.5572 222.449 77.3439C222.918 77.1199 223.43 77.0079 223.985 77.0079ZM229.075 81.5359C229.075 80.6399 229.251 79.8452 229.603 79.1519C229.966 78.4585 230.456 77.9252 231.075 77.5519C231.694 77.1785 232.382 76.9919 233.139 76.9919C233.715 76.9919 234.264 77.1199 234.787 77.3759C235.31 77.6212 235.726 77.9519 236.035 78.3679V74.1599H238.307V85.9999H236.035V84.6879C235.758 85.1252 235.368 85.4772 234.867 85.7439C234.366 86.0105 233.784 86.1439 233.123 86.1439C232.376 86.1439 231.694 85.9519 231.075 85.5679C230.456 85.1839 229.966 84.6452 229.603 83.9519C229.251 83.2479 229.075 82.4425 229.075 81.5359ZM236.051 81.5679C236.051 81.0239 235.944 80.5599 235.731 80.1759C235.518 79.7812 235.23 79.4825 234.867 79.2799C234.504 79.0665 234.115 78.9599 233.699 78.9599C233.283 78.9599 232.899 79.0612 232.547 79.2639C232.195 79.4665 231.907 79.7652 231.683 80.1599C231.47 80.5439 231.363 81.0025 231.363 81.5359C231.363 82.0692 231.47 82.5385 231.683 82.9439C231.907 83.3385 232.195 83.6425 232.547 83.8559C232.91 84.0692 233.294 84.1759 233.699 84.1759C234.115 84.1759 234.504 84.0745 234.867 83.8719C235.23 83.6585 235.518 83.3599 235.731 82.9759C235.944 82.5812 236.051 82.1119 236.051 81.5679ZM256.595 77.1359L254.003 85.9999H251.587L249.971 79.8079L248.355 85.9999H245.923L243.315 77.1359H245.587L247.155 83.8879L248.851 77.1359H251.219L252.883 83.8719L254.451 77.1359H256.595ZM262.799 77.0079C263.471 77.0079 264.068 77.1572 264.591 77.4559C265.114 77.7439 265.519 78.1759 265.807 78.7519C266.106 79.3172 266.255 79.9999 266.255 80.7999V85.9999H264.015V81.1039C264.015 80.3999 263.839 79.8612 263.487 79.4879C263.135 79.1039 262.655 78.9119 262.047 78.9119C261.428 78.9119 260.938 79.1039 260.575 79.4879C260.223 79.8612 260.047 80.3999 260.047 81.1039V85.9999H257.807V74.1599H260.047V78.2399C260.335 77.8559 260.719 77.5572 261.199 77.3439C261.679 77.1199 262.212 77.0079 262.799 77.0079ZM267.809 81.5359C267.809 80.6399 267.985 79.8452 268.337 79.1519C268.7 78.4585 269.185 77.9252 269.793 77.5519C270.412 77.1785 271.1 76.9919 271.857 76.9919C272.519 76.9919 273.095 77.1252 273.585 77.3919C274.087 77.6585 274.487 77.9945 274.785 78.3999V77.1359H277.041V85.9999H274.785V84.7039C274.497 85.1199 274.097 85.4665 273.585 85.7439C273.084 86.0105 272.503 86.1439 271.841 86.1439C271.095 86.1439 270.412 85.9519 269.793 85.5679C269.185 85.1839 268.7 84.6452 268.337 83.9519C267.985 83.2479 267.809 82.4425 267.809 81.5359ZM274.785 81.5679C274.785 81.0239 274.679 80.5599 274.465 80.1759C274.252 79.7812 273.964 79.4825 273.601 79.2799C273.239 79.0665 272.849 78.9599 272.433 78.9599C272.017 78.9599 271.633 79.0612 271.281 79.2639C270.929 79.4665 270.641 79.7652 270.417 80.1599C270.204 80.5439 270.097 81.0025 270.097 81.5359C270.097 82.0692 270.204 82.5385 270.417 82.9439C270.641 83.3385 270.929 83.6425 271.281 83.8559C271.644 84.0692 272.028 84.1759 272.433 84.1759C272.849 84.1759 273.239 84.0745 273.601 83.8719C273.964 83.6585 274.252 83.3599 274.465 82.9759C274.679 82.5812 274.785 82.1119 274.785 81.5679ZM281.837 78.9759V83.2639C281.837 83.5625 281.906 83.7812 282.045 83.9199C282.194 84.0479 282.44 84.1119 282.781 84.1119H283.821V85.9999H282.413C280.525 85.9999 279.581 85.0825 279.581 83.2479V78.9759H278.525V77.1359H279.581V74.9439H281.837V77.1359H283.821V78.9759H281.837ZM290.381 76.0799C289.986 76.0799 289.655 75.9572 289.389 75.7119C289.133 75.4559 289.005 75.1412 289.005 74.7679C289.005 74.3945 289.133 74.0852 289.389 73.8399C289.655 73.5839 289.986 73.4559 290.381 73.4559C290.775 73.4559 291.101 73.5839 291.357 73.8399C291.623 74.0852 291.757 74.3945 291.757 74.7679C291.757 75.1412 291.623 75.4559 291.357 75.7119C291.101 75.9572 290.775 76.0799 290.381 76.0799ZM291.485 77.1359V85.9999H289.245V77.1359H291.485ZM297.09 86.1439C296.364 86.1439 295.714 86.0159 295.138 85.7599C294.562 85.4932 294.103 85.1359 293.762 84.6879C293.431 84.2399 293.25 83.7439 293.218 83.1999H295.474C295.516 83.5412 295.682 83.8239 295.97 84.0479C296.268 84.2719 296.636 84.3839 297.074 84.3839C297.5 84.3839 297.831 84.2985 298.066 84.1279C298.311 83.9572 298.434 83.7385 298.434 83.4719C298.434 83.1839 298.284 82.9705 297.986 82.8319C297.698 82.6825 297.234 82.5225 296.594 82.3519C295.932 82.1919 295.388 82.0265 294.962 81.8559C294.546 81.6852 294.183 81.4239 293.874 81.0719C293.575 80.7199 293.426 80.2452 293.426 79.6479C293.426 79.1572 293.564 78.7092 293.842 78.3039C294.13 77.8985 294.535 77.5785 295.058 77.3439C295.591 77.1092 296.215 76.9919 296.93 76.9919C297.986 76.9919 298.828 77.2585 299.458 77.7919C300.087 78.3145 300.434 79.0239 300.498 79.9199H298.354C298.322 79.5679 298.172 79.2905 297.906 79.0879C297.65 78.8745 297.303 78.7679 296.866 78.7679C296.46 78.7679 296.146 78.8425 295.922 78.9919C295.708 79.1412 295.602 79.3492 295.602 79.6159C295.602 79.9145 295.751 80.1439 296.05 80.3039C296.348 80.4532 296.812 80.6079 297.442 80.7679C298.082 80.9279 298.61 81.0932 299.026 81.2639C299.442 81.4345 299.799 81.7012 300.098 82.0639C300.407 82.4159 300.567 82.8852 300.578 83.4719C300.578 83.9839 300.434 84.4425 300.146 84.8479C299.868 85.2532 299.463 85.5732 298.93 85.8079C298.407 86.0319 297.794 86.1439 297.09 86.1439ZM309.621 86.1439C308.896 86.1439 308.245 86.0159 307.669 85.7599C307.093 85.4932 306.634 85.1359 306.293 84.6879C305.962 84.2399 305.781 83.7439 305.749 83.1999H308.005C308.048 83.5412 308.213 83.8239 308.501 84.0479C308.8 84.2719 309.168 84.3839 309.605 84.3839C310.032 84.3839 310.362 84.2985 310.597 84.1279C310.842 83.9572 310.965 83.7385 310.965 83.4719C310.965 83.1839 310.816 82.9705 310.517 82.8319C310.229 82.6825 309.765 82.5225 309.125 82.3519C308.464 82.1919 307.92 82.0265 307.493 81.8559C307.077 81.6852 306.714 81.4239 306.405 81.0719C306.106 80.7199 305.957 80.2452 305.957 79.6479C305.957 79.1572 306.096 78.7092 306.373 78.3039C306.661 77.8985 307.066 77.5785 307.589 77.3439C308.122 77.1092 308.746 76.9919 309.461 76.9919C310.517 76.9919 311.36 77.2585 311.989 77.7919C312.618 78.3145 312.965 79.0239 313.029 79.9199H310.885C310.853 79.5679 310.704 79.2905 310.437 79.0879C310.181 78.8745 309.834 78.7679 309.397 78.7679C308.992 78.7679 308.677 78.8425 308.453 78.9919C308.24 79.1412 308.133 79.3492 308.133 79.6159C308.133 79.9145 308.282 80.1439 308.581 80.3039C308.88 80.4532 309.344 80.6079 309.973 80.7679C310.613 80.9279 311.141 81.0932 311.557 81.2639C311.973 81.4345 312.33 81.7012 312.629 82.0639C312.938 82.4159 313.098 82.8852 313.109 83.4719C313.109 83.9839 312.965 84.4425 312.677 84.8479C312.4 85.2532 311.994 85.5732 311.461 85.8079C310.938 86.0319 310.325 86.1439 309.621 86.1439ZM323.188 81.3759C323.188 81.6959 323.166 81.9839 323.124 82.2399H316.644C316.697 82.8799 316.921 83.3812 317.316 83.7439C317.71 84.1065 318.196 84.2879 318.772 84.2879C319.604 84.2879 320.196 83.9305 320.548 83.2159H322.964C322.708 84.0692 322.217 84.7732 321.492 85.3279C320.766 85.8719 319.876 86.1439 318.82 86.1439C317.966 86.1439 317.198 85.9572 316.516 85.5839C315.844 85.1999 315.316 84.6612 314.932 83.9679C314.558 83.2745 314.372 82.4745 314.372 81.5679C314.372 80.6505 314.558 79.8452 314.932 79.1519C315.305 78.4585 315.828 77.9252 316.5 77.5519C317.172 77.1785 317.945 76.9919 318.82 76.9919C319.662 76.9919 320.414 77.1732 321.076 77.5359C321.748 77.8985 322.265 78.4159 322.628 79.0879C323.001 79.7492 323.188 80.5119 323.188 81.3759ZM320.868 80.7359C320.857 80.1599 320.649 79.7012 320.244 79.3599C319.838 79.0079 319.342 78.8319 318.756 78.8319C318.201 78.8319 317.732 79.0025 317.348 79.3439C316.974 79.6745 316.745 80.1385 316.66 80.7359H320.868ZM333.063 81.3759C333.063 81.6959 333.041 81.9839 332.999 82.2399H326.519C326.572 82.8799 326.796 83.3812 327.191 83.7439C327.585 84.1065 328.071 84.2879 328.647 84.2879C329.479 84.2879 330.071 83.9305 330.423 83.2159H332.839C332.583 84.0692 332.092 84.7732 331.367 85.3279C330.641 85.8719 329.751 86.1439 328.695 86.1439C327.841 86.1439 327.073 85.9572 326.391 85.5839C325.719 85.1999 325.191 84.6612 324.807 83.9679C324.433 83.2745 324.247 82.4745 324.247 81.5679C324.247 80.6505 324.433 79.8452 324.807 79.1519C325.18 78.4585 325.703 77.9252 326.375 77.5519C327.047 77.1785 327.82 76.9919 328.695 76.9919C329.537 76.9919 330.289 77.1732 330.951 77.5359C331.623 77.8985 332.14 78.4159 332.503 79.0879C332.876 79.7492 333.063 80.5119 333.063 81.3759ZM330.743 80.7359C330.732 80.1599 330.524 79.7012 330.119 79.3599C329.713 79.0079 329.217 78.8319 328.631 78.8319C328.076 78.8319 327.607 79.0025 327.223 79.3439C326.849 79.6745 326.62 80.1385 326.535 80.7359H330.743ZM339.61 77.0079C340.666 77.0079 341.519 77.3439 342.17 78.0159C342.82 78.6772 343.146 79.6052 343.146 80.7999V85.9999H340.906V81.1039C340.906 80.3999 340.73 79.8612 340.378 79.4879C340.026 79.1039 339.546 78.9119 338.938 78.9119C338.319 78.9119 337.828 79.1039 337.466 79.4879C337.114 79.8612 336.938 80.3999 336.938 81.1039V85.9999H334.698V77.1359H336.938V78.2399C337.236 77.8559 337.615 77.5572 338.074 77.3439C338.543 77.1199 339.055 77.0079 339.61 77.0079Z" fill="#111510"/>
<defs>
<clipPath id="clip0_67_164">
<rect width="81.0792" height="81.0792" fill="white" transform="translate(87.5854 164.16)"/>
</clipPath>
<clipPath id="clip1_67_164">
<rect width="81.0792" height="81.0792" fill="white" transform="translate(87.5854 164.16)"/>
</clipPath>
</defs>
</svg>
