<svg width="1440" height="360" viewBox="0 0 1440 360" fill="none" xmlns="http://www.w3.org/2000/svg">
<g clip-path="url(#clip0_9_68)">
<path d="M0 73C48 79 144 109.2 240 103C336 96.8 384 37.2 480 42C576 46.8 624 132 720 127C816 122 864 18.6 960 17C1056 15.4 1104 117.2 1200 119C1296 120.8 1392 44.6 1440 26V360H0V73Z" fill="#02C39A"/>
<path d="M0 267C41.2 276.6 123.6 329.8 206 315C288.4 300.2 329.6 190 412 193C494.4 196 535.6 331.8 618 330C700.4 328.2 741.6 180.8 824 184C906.4 187.2 947.6 330.4 1030 346C1112.4 361.6 1154 275.4 1236 262C1318 248.6 1399.2 275.6 1440 279V360H0V267Z" fill="#00A87E"/>
</g>
<defs>
<clipPath id="clip0_9_68">
<rect width="1440" height="360" fill="white"/>
</clipPath>
</defs>
</svg>
